# xmcd
#
# Track frame offsets:
# 150
# 8974
# 17527
# 27794
# 39131
# 53603
# 63589
# 75372
# 86070
# 97850
# 107981
# 119879
# 130830
# 140385
# 149476
# 161806
# 171853
# 184266
# 197169
# 209358
# 220256
# 230464
# 240102
#
# Disc length: 3330 seconds
#
# Revision: 0
# Processed by: cddbd v1.5.1PL0 Copyright (c) Steve Scherf et al.
# Submitted via: Audion 3.0.2 (http://www.panic.com/audion/)
#
DISCID=390d0017
DTITLE=Various Artist - Swan Records From the Vaults Vol.1
DYEAR=1900
DGENRE=
TTITLE0=Freddie cannon-Blue Plate Special
TTITLE1=Quaker City Boys-Teasin'
TTITLE2=Heartbreakers-Baby,Baby
TTITLE3=Danny and Jrs-Mister Whisper
TTITLE4=Marcy Jo and Eddie Rambeau-Those Golden Oldies
TTITLE5=Dicky Doo and Donts-Teardrops Will Fall
TTITLE6=Lee Andrews-i've Got A Right To Cry
TTITLE7=Teddy and twilights-Woman is a man's best friend
TTITLE8=Gabriel and the Angels-Don't Wanna Twist No More
TTITLE9=Dicky Doo and Donts-Wild Party
TTITLE10=Freddie Cannon-Guernavaca Choo-Choo
TTITLE11=Royal Teens-I'll Love You (alt take)
TTITLE12=Bobby Comstock-Let's Stomp (alt take)
TTITLE13=Mark Valentino-Walking Alone (orig demo)
TTITLE14=Eddie Bo-Let's Popeye
TTITLE15=Dicky Doo and Donts-Come With Us
TTITLE16=Freddie Cannon-Happy Shades of Blue
TTITLE17=Halos-Nag! (alt take)
TTITLE18=Graduates-Ballad of a boy and a girl
TTITLE19=Danny and Jrs-1000 Miles Away (alt take)
TTITLE20=Encounters-A Place In Your Heart (alt take)
TTITLE21=The Swans-He's Mine
TTITLE22=Dicky Doo and Donts-Drums of Richard A. Doo
EXTD=
EXTT0=
EXTT1=
EXTT2=
EXTT3=
EXTT4=
EXTT5=
EXTT6=
EXTT7=
EXTT8=
EXTT9=
EXTT10=
EXTT11=
EXTT12=
EXTT13=
EXTT14=
EXTT15=
EXTT16=
EXTT17=
EXTT18=
EXTT19=
EXTT20=
EXTT21=
EXTT22=
PLAYORDER=
